<svg width="22" height="22" viewBox="0 0 22 22" fill="none" xmlns="http://www.w3.org/2000/svg">
<path d="M10.7175 4.8125C10.2964 4.8125 9.95192 4.50312 9.95192 4.125V3.4375C9.95192 1.53828 11.6648 0 13.7796 0H14.5451C14.9662 0 15.3106 0.309375 15.3106 0.6875V1.375C15.3106 3.27422 13.5978 4.8125 11.483 4.8125H10.7175ZM0 12.375C0 9.09648 1.70809 5.5 5.35873 5.5C6.66492 5.5 8.21512 5.94258 9.31557 6.3293C10.2151 6.64297 11.2246 6.64297 12.1241 6.3293C13.2198 5.94688 14.7748 5.5 16.081 5.5C19.7316 5.5 21.4397 9.09648 21.4397 12.375C21.4397 17.875 17.612 22 13.7844 22C12.9949 22 11.9614 21.7164 11.3203 21.5145C10.9328 21.3941 10.5117 21.3941 10.1242 21.5145C9.48303 21.7164 8.44956 22 7.66011 22C3.82766 22 0 17.875 0 12.375Z" fill="#EEEEEE"/>
</svg>
