<svg width="29" height="23" viewBox="0 0 29 23" fill="none" xmlns="http://www.w3.org/2000/svg">
<path d="M2.125 22.6667C1.55833 22.6667 1.0625 22.4542 0.6375 22.0292C0.2125 21.6042 0 21.1083 0 20.5417V2.125C0 1.55833 0.2125 1.0625 0.6375 0.6375C1.0625 0.2125 1.55833 0 2.125 0H26.2083C26.775 0 27.2708 0.2125 27.6958 0.6375C28.1208 1.0625 28.3333 1.55833 28.3333 2.125V20.5417C28.3333 21.1083 28.1208 21.6042 27.6958 22.0292C27.2708 22.4542 26.775 22.6667 26.2083 22.6667H2.125ZM26.2083 4.07292L14.7333 11.5813C14.6389 11.6285 14.5503 11.6698 14.4677 11.7052C14.3851 11.7406 14.2847 11.7583 14.1667 11.7583C14.0486 11.7583 13.9483 11.7406 13.8656 11.7052C13.783 11.6698 13.6944 11.6285 13.6 11.5813L2.125 4.07292V20.5417H26.2083V4.07292ZM14.1667 9.84583L26.0667 2.125H2.30208L14.1667 9.84583ZM2.125 4.32083V2.92836V2.95428V2.125V2.93958V2.90728V4.32083Z" fill="#646464" fill-opacity="0.87"/>
</svg>
