<svg width="28" height="26" viewBox="0 0 28 26" fill="none" xmlns="http://www.w3.org/2000/svg">
<path d="M18.8176 14.5265L17.3949 13.0503C17.9553 11.4624 17.6644 10.1428 16.5219 9.09161C15.3795 8.04043 14.1401 7.77204 12.8037 8.28645L11.3811 6.81032C11.7475 6.5643 12.157 6.38538 12.6097 6.27355C13.0624 6.16172 13.5258 6.10581 14 6.10581C15.5304 6.10581 16.8291 6.65936 17.8961 7.76645C18.963 8.87355 19.4965 10.2211 19.4965 11.809C19.4965 12.3011 19.4373 12.7875 19.3187 13.2684C19.2002 13.7492 19.0331 14.1686 18.8176 14.5265ZM22.9885 18.8542L21.6951 17.5123C22.7513 16.7071 23.6728 15.8069 24.4596 14.8116C25.2463 13.8163 25.8229 12.8155 26.1894 11.809C25.1116 9.32645 23.495 7.36387 21.3395 5.92129C19.184 4.47871 16.8453 3.75742 14.3233 3.75742C13.418 3.75742 12.4911 3.84688 11.5427 4.02581C10.5943 4.20473 9.85065 4.4172 9.31178 4.66323L7.82448 3.08645C8.57891 2.7286 9.54349 2.41548 10.7182 2.1471C11.893 1.87871 13.0408 1.74452 14.1617 1.74452C17.0716 1.74452 19.7552 2.57204 22.2125 4.2271C24.6697 5.88215 26.545 8.10753 27.8383 10.9032C27.903 11.0151 27.9461 11.1492 27.9677 11.3058C27.9892 11.4624 28 11.6301 28 11.809C28 11.988 27.9892 12.1613 27.9677 12.329C27.9461 12.4968 27.903 12.6366 27.8383 12.7484C27.2779 13.9785 26.5881 15.108 25.7691 16.1368C24.95 17.1656 24.0231 18.0714 22.9885 18.8542ZM24.1524 25.6981L19.4319 20.9006C18.6774 21.2138 17.826 21.4542 16.8776 21.6219C15.9292 21.7897 14.97 21.8735 14 21.8735C11.0254 21.8735 8.29869 21.046 5.81986 19.391C3.34103 17.7359 1.45497 15.5105 0.161663 12.7148C0.0969977 12.5806 0.0538876 12.4409 0.0323326 12.2955C0.0107775 12.1501 0 11.988 0 11.809C0 11.6301 0.0161663 11.4568 0.0484988 11.289C0.0808314 11.1213 0.118553 10.9815 0.161663 10.8697C0.614319 9.86323 1.19092 8.88473 1.89145 7.93419C2.59199 6.98366 3.41647 6.08344 4.3649 5.23355L0.969977 1.71097C0.775981 1.50968 0.678984 1.27484 0.678984 1.00645C0.678984 0.738065 0.775981 0.503226 0.969977 0.301935C1.16397 0.100645 1.39569 0 1.66513 0C1.93456 0 2.16628 0.100645 2.36028 0.301935L25.5104 24.3226C25.6828 24.5015 25.7691 24.7196 25.7691 24.9768C25.7691 25.234 25.6828 25.4632 25.5104 25.6645C25.338 25.8882 25.117 26 24.8476 26C24.5781 26 24.3464 25.8994 24.1524 25.6981ZM5.69053 6.64258C4.89299 7.24645 4.1224 8.04043 3.37875 9.02452C2.6351 10.0086 2.10162 10.9368 1.77829 11.809C2.8776 14.2916 4.53195 16.2542 6.74134 17.6968C8.95073 19.1394 11.4565 19.8606 14.2587 19.8606C14.97 19.8606 15.6705 19.8159 16.3603 19.7265C17.05 19.637 17.5674 19.5028 17.9122 19.3239L15.843 17.1768C15.6059 17.2886 15.3149 17.3725 14.97 17.4284C14.6251 17.4843 14.3018 17.5123 14 17.5123C12.4911 17.5123 11.1978 16.9643 10.1201 15.8684C9.04234 14.7725 8.50346 13.4194 8.50346 11.809C8.50346 11.4735 8.53041 11.1381 8.5843 10.8026C8.63818 10.4671 8.71901 10.1652 8.82679 9.89677L5.69053 6.64258Z" fill="#646464"/>
</svg>
