<svg width="28" height="19" viewBox="0 0 28 19" fill="none" xmlns="http://www.w3.org/2000/svg">
<path d="M14.0038 14.8833C15.5317 14.8833 16.8291 14.3596 17.8961 13.3121C18.963 12.2646 19.4965 10.9927 19.4965 9.49626C19.4965 7.99987 18.9618 6.72917 17.8923 5.68417C16.8228 4.63917 15.5241 4.11667 13.9962 4.11667C12.4683 4.11667 11.1709 4.64041 10.1039 5.6879C9.03695 6.73537 8.50346 8.00732 8.50346 9.50374C8.50346 11.0001 9.03822 12.2708 10.1077 13.3158C11.1772 14.3608 12.4759 14.8833 14.0038 14.8833ZM13.9924 13.0467C12.9844 13.0467 12.1301 12.7011 11.4296 12.0101C10.729 11.319 10.3788 10.4798 10.3788 9.49256C10.3788 8.5053 10.7316 7.66861 11.4372 6.9825C12.1428 6.29639 12.9996 5.95333 14.0076 5.95333C15.0156 5.95333 15.8699 6.29887 16.5704 6.98994C17.271 7.68103 17.6212 8.5202 17.6212 9.50744C17.6212 10.4947 17.2684 11.3314 16.5628 12.0175C15.8572 12.7036 15.0004 13.0467 13.9924 13.0467ZM14 19C11.0254 19 8.31486 18.2083 5.86836 16.625C3.42186 15.0417 1.53197 12.9509 0.198684 10.3526C0.130893 10.2486 0.0808314 10.1209 0.0484988 9.96949C0.0161663 9.81804 0 9.66154 0 9.5C0 9.33846 0.0161663 9.18196 0.0484988 9.03051C0.0808314 8.87906 0.130893 8.75137 0.198684 8.64744C1.53197 6.04915 3.42186 3.95833 5.86836 2.375C8.31486 0.791667 11.0254 0 14 0C16.9746 0 19.6851 0.791667 22.1316 2.375C24.5781 3.95833 26.468 6.04915 27.8013 8.64744C27.8691 8.75137 27.9192 8.87906 27.9515 9.03051C27.9838 9.18196 28 9.33846 28 9.5C28 9.66154 27.9838 9.81804 27.9515 9.96949C27.9192 10.1209 27.8691 10.2486 27.8013 10.3526C26.468 12.9509 24.5781 15.0417 22.1316 16.625C19.6851 18.2083 16.9746 19 14 19ZM13.9945 17.1C16.6063 17.1 19.0062 16.4086 21.194 15.0258C23.3818 13.6431 25.047 11.8011 26.1894 9.5C25.047 7.19889 23.3837 5.35694 21.1995 3.97417C19.0152 2.59139 16.6172 1.9 14.0055 1.9C11.3937 1.9 8.99384 2.59139 6.806 3.97417C4.61817 5.35694 2.94226 7.19889 1.77829 9.5C2.94226 11.8011 4.61635 13.6431 6.80054 15.0258C8.98476 16.4086 11.3828 17.1 13.9945 17.1Z" fill="#646464"/>
</svg>
