<svg width="24" height="31" viewBox="0 0 24 31" fill="none" xmlns="http://www.w3.org/2000/svg">
<path d="M2.25 31C1.63125 31 1.10156 30.7832 0.660938 30.3496C0.220313 29.9159 0 29.3946 0 28.7857V12.769C0 12.1601 0.220313 11.6388 0.660938 11.2052C1.10156 10.7716 1.63125 10.5548 2.25 10.5548H4.875V7.01191C4.875 5.07194 5.57007 3.4183 6.96022 2.05098C8.35038 0.683661 10.0316 0 12.004 0C13.9763 0 15.6563 0.683661 17.0438 2.05098C18.4313 3.4183 19.125 5.07194 19.125 7.01191V10.5548H21.75C22.3688 10.5548 22.8984 10.7716 23.3391 11.2052C23.7797 11.6388 24 12.1601 24 12.769V28.7857C24 29.3946 23.7797 29.9159 23.3391 30.3496C22.8984 30.7832 22.3688 31 21.75 31H2.25ZM2.25 28.7857H21.75V12.769H2.25V28.7857ZM12.0063 23.619C12.8021 23.619 13.4813 23.348 14.0438 22.806C14.6063 22.264 14.8875 21.6124 14.8875 20.8512C14.8875 20.1131 14.6041 19.4427 14.0374 18.8399C13.4707 18.2371 12.7895 17.9357 11.9937 17.9357C11.1979 17.9357 10.5188 18.2371 9.95625 18.8399C9.39375 19.4427 9.1125 20.1192 9.1125 20.8696C9.1125 21.62 9.39585 22.2659 9.96255 22.8071C10.5293 23.3484 11.2105 23.619 12.0063 23.619ZM7.125 10.5548H16.875V7.01191C16.875 5.67922 16.4015 4.54646 15.4544 3.6136C14.5073 2.68072 13.3574 2.21429 12.0044 2.21429C10.6515 2.21429 9.5 2.68072 8.55 3.6136C7.6 4.54646 7.125 5.67922 7.125 7.01191V10.5548Z" fill="#646464"/>
</svg>
