<svg width="19" height="22" viewBox="0 0 19 22" fill="none" xmlns="http://www.w3.org/2000/svg">
<path d="M9.5 10.8103C10.9397 10.8103 12.3205 10.2409 13.3386 9.22721C14.3566 8.21354 14.9286 6.83871 14.9286 5.40517C14.9286 3.97163 14.3566 2.5968 13.3386 1.58314C12.3205 0.569472 10.9397 0 9.5 0C8.06025 0 6.67947 0.569472 5.66142 1.58314C4.64337 2.5968 4.07143 3.97163 4.07143 5.40517C4.07143 6.83871 4.64337 8.21354 5.66142 9.22721C6.67947 10.2409 8.06025 10.8103 9.5 10.8103ZM7.56183 12.8373C3.38438 12.8373 0 16.2071 0 20.3665C0 21.0591 0.564063 21.6207 1.2596 21.6207H17.7404C18.4359 21.6207 19 21.0591 19 20.3665C19 16.2071 15.6156 12.8373 11.4382 12.8373H7.56183Z" fill="#EEEEEE"/>
</svg>
