<svg width="23" height="14" viewBox="0 0 23 14" fill="none" xmlns="http://www.w3.org/2000/svg">
<path d="M3.38521 1C3.38521 0.446875 3.88947 0 4.51362 0H5.64202C6.26617 0 6.77043 0.446875 6.77043 1V6V8V13C6.77043 13.5531 6.26617 14 5.64202 14H4.51362C3.88947 14 3.38521 13.5531 3.38521 13V11H2.25681C1.63266 11 1.1284 10.5531 1.1284 10V8C0.504256 8 0 7.55312 0 7C0 6.44688 0.504256 6 1.1284 6V4C1.1284 3.44688 1.63266 3 2.25681 3H3.38521V1ZM19.1829 1V3H20.3113C20.9354 3 21.4397 3.44688 21.4397 4V6C22.0638 6 22.5681 6.44688 22.5681 7C22.5681 7.55312 22.0638 8 21.4397 8V10C21.4397 10.5531 20.9354 11 20.3113 11H19.1829V13C19.1829 13.5531 18.6786 14 18.0545 14H16.9261C16.3019 14 15.7977 13.5531 15.7977 13V8V6V1C15.7977 0.446875 16.3019 0 16.9261 0H18.0545C18.6786 0 19.1829 0.446875 19.1829 1ZM14.6693 6V8H7.89883V6H14.6693Z" fill="#EEEEEE"/>
</svg>
